# xmcd
#
# Track frame offsets:
# 150
# 20187
# 36269
# 50215
# 77851
# 98704
# 118417
# 134811
# 152326
# 166998
# 188309
# 206257
# 219381
# 240560
# 259771
#
# Disc length: 3858 seconds
#
#
# Revision: 0
# Processed by: cddbd v1.5.2PL0 Copyright (c) Steve Scherf et al.
# Submitted via: FreeRIP 2.944 
#
DISCID=d10f100f
DTITLE=Tim Koss - Daddyo's Double Play
DYEAR=2001
DGENRE=
TTITLE0=Into Something
TTITLE1=Another Time
TTITLE2=May Day
TTITLE3=Goodbye for Now
TTITLE4=Rainy Day Calypso
TTITLE5=Like Someone In Love
TTITLE6=Convergence Zone
TTITLE7=Silver Anniversary
TTITLE8=Q-Bop
TTITLE9=Smokin Blues
TTITLE10=Blue Wizard
TTITLE11=Bug In My Soup
TTITLE12=Killer Joe
TTITLE13=Daddyo's Double Play
TTITLE14=I Can't Get Started
EXTD=
EXTT0=
EXTT1=
EXTT2=
EXTT3=
EXTT4=
EXTT5=
EXTT6=
EXTT7=
EXTT8=
EXTT9=
EXTT10=
EXTT11=
EXTT12=
EXTT13=
EXTT14=
PLAYORDER=
